# xmcd
#
# Track frame offsets:
#	150
#	22111
#	42974
#	65259
#	82170
#	106142
#	122435
#	146802
#	169581
#	188929
#
# Disc length: 2774 seconds
#
# Revision: 4286053989
# Processed by: cddbd v1.5.2PL0 Copyright (c) Steve Scherf et al.
# Submitted via: EZCDAudioConverter 8.0.2.1
#
DISCID=860ad40a
DTITLE=Various Artist - Trả Lại Tình Đầu
DYEAR=2003
DGENRE=
TTITLE0=Đa,f Vĩnh Hưng - Đời em không lẻ loi
TTITLE1=Đoan Trang - Xin đừng quên tôi
TTITLE2=Lâm Vũ - Lặng lẽ
TTITLE3=Nguyễn Phi Hùng - Tình gần
TTITLE4=Mỹ Lệ - Người tình
TTITLE5=AC&M - Chuyện chàng cô đơn
TTITLE6=Lâm Vũ - Chờ phone của anh
TTITLE7=Mỹ Tâm - Trả Lại Tình Đầu
TTITLE8=Thiên Bảo - Từ biệt mái trường
TTITLE9=Nguyễn Phi Hùng - Con sóng mùa đông
EXTD=
EXTT0=
EXTT1=
EXTT2=
EXTT3=
EXTT4=
EXTT5=
EXTT6=
EXTT7=
EXTT8=
EXTT9=
PLAYORDER=
